<svg xmlns="http://www.w3.org/2000/svg" width="120" height="15" fill="none" viewBox="0 0 120 15"><path stroke="#FF3A00" stroke-width="1.5" d="M119 4.5L107.137 1.53433C105.74 1.18491 104.273 1.22821 102.898 1.65948L68.0572 12.5899C65.5995 13.3609 63.9853 10.0657 66.101 8.59652V8.59652C67.9108 7.33975 67.0214 4.5 64.8181 4.5L61 4.5L49.2647 4.5C47.7617 4.5 47.0102 4.5 46.2742 4.61014C45.7916 4.68237 45.3149 4.78983 44.8479 4.93167C44.1359 5.14794 43.4571 5.47038 42.0994 6.11527L30.703 11.5286C28.6385 12.5092 27.6063 12.9995 26.5162 13.2443C25.8025 13.4046 25.0735 13.4861 24.342 13.4873C23.2247 13.4892 22.1098 13.2389 19.8798 12.7383L1 8.5"/></svg>