<?xml version="1.0" encoding="UTF-8"?>
<!DOCTYPE svg PUBLIC "-//W3C//DTD SVG 1.1//EN" "http://www.w3.org/Graphics/SVG/1.1/DTD/svg11.dtd">
<!-- Creator: CorelDRAW X7 -->
<svg xmlns="http://www.w3.org/2000/svg" xml:space="preserve" width="2.13476in" height="2.13476in" version="1.1" style="shape-rendering:geometricPrecision; text-rendering:geometricPrecision; image-rendering:optimizeQuality; fill-rule:evenodd; clip-rule:evenodd"
viewBox="0 0 2316 2316"
 xmlns:xlink="http://www.w3.org/1999/xlink">
 <defs>
  <style type="text/css">
   <![CDATA[
    .fil2 {fill:#5C2D91}
    .fil0 {fill:#6D429C}
    .fil1 {fill:white}
   ]]>
  </style>
 </defs>
 <g id="Layer_x0020_1">
  <metadata id="CorelCorpID_0Corel-Layer"/>
  <g id="_2145390249968">
   <path class="fil0" d="M339 1977c-452,-452 -452,-1185 0,-1638 453,-452 1186,-452 1638,0 452,453 452,1186 0,1638 -452,452 -1185,452 -1638,0z"/>
   <path class="fil1" d="M268 1245c28,0 51,23 51,52 0,28 -23,51 -51,51 -28,0 -51,-23 -51,-51 0,-29 23,-52 51,-52z"/>
   <path class="fil2" d="M339 339l0 0c453,-452 1186,-452 1638,0 452,453 452,1186 0,1638l0 0 -1638 -1638z"/>
   <path class="fil1" d="M907 1142c-1,33 1,65 5,98l-2 0c-4,-8 -13,-23 -27,-45l-331 -519 -100 0 0 663 77 0 0 -479c1,-30 0,-61 -3,-91l3 0c5,14 12,28 21,41l339 529 95 0 0 -663 -77 0 0 466zm600 124l-272 0 0 -230 238 0 0 -69 -238 0 0 -221 255 0 0 -70 -335 0 0 663 352 0 0 -73zm59 -590l0 70 190 0 0 593 77 0 0 -593 192 0 0 -70 -459 0zm-756 827c-19,8 -37,20 -51,35 -15,16 -26,34 -34,55 -7,20 -11,42 -10,63 -1,40 13,79 39,109 14,14 30,25 48,33 18,7 37,10 56,9 29,1 58,-5 84,-18l1 -34c-24,15 -52,21 -80,21 -14,0 -29,-2 -43,-8 -14,-6 -26,-14 -37,-25 -19,-23 -30,-53 -30,-83 0,-2 0,-4 0,-6 -2,-35 10,-68 33,-94 10,-12 24,-21 38,-28 14,-6 29,-9 44,-9 1,0 2,0 3,0 25,0 50,6 72,19l0 -37c-21,-8 -43,-13 -66,-13 -2,0 -4,0 -6,0 -21,0 -42,4 -61,11l0 0zm362 104c-19,-19 -44,-30 -71,-30 -2,0 -3,0 -5,0 -15,-1 -30,2 -44,7 -14,6 -26,14 -37,24 -10,12 -18,25 -24,40 -5,15 -7,30 -6,46 -1,30 9,59 29,81 9,10 21,19 35,25 13,5 27,8 42,7 14,1 29,-2 43,-8 13,-5 25,-14 35,-25 19,-21 30,-49 30,-77 0,-2 0,-4 0,-6 1,-31 -8,-61 -27,-84l0 0zm-25 148c-12,14 -30,22 -48,22 -2,0 -3,0 -4,0 -10,0 -20,-2 -29,-6 -9,-4 -17,-9 -24,-17 -13,-16 -20,-35 -20,-56 0,-1 1,-3 1,-5 -2,-23 5,-45 19,-63 7,-8 15,-14 24,-18 9,-4 19,-5 29,-5 10,-1 19,1 28,5 9,4 17,10 24,18 12,16 18,36 18,56 0,2 0,4 0,7 1,22 -5,44 -18,62l0 0zm166 -162c-11,10 -19,22 -23,36l0 -45 -36 0 0 218 36 0 0 -111c-1,-20 4,-41 15,-58 4,-6 9,-11 16,-15 6,-3 13,-6 20,-6 10,0 19,2 27,7l0 -36c-7,-2 -14,-3 -21,-3 -12,0 -24,5 -34,13l0 0zm267 90c2,-28 -7,-55 -23,-77 -9,-9 -19,-17 -30,-21 -12,-5 -24,-7 -36,-7 -14,0 -28,3 -40,8 -13,6 -24,14 -33,24 -18,22 -28,50 -28,78 0,2 0,4 0,5 -2,30 7,60 26,84 9,10 20,18 33,23 12,5 26,7 40,7 26,1 53,-6 75,-21l0 -33c-19,16 -43,24 -67,24 -10,1 -19,0 -28,-4 -9,-3 -17,-8 -24,-15 -12,-15 -18,-33 -18,-52 0,-1 0,-3 0,-4l153 0 0 -19zm-151 -8c2,-17 9,-33 21,-46 11,-11 26,-18 41,-18 0,0 1,0 1,0 7,0 15,1 22,4 7,3 13,7 18,13 10,13 15,30 14,47l-117 0z"/>
  </g>
 </g>
</svg>
