<svg xmlns="http://www.w3.org/2000/svg" width="146" height="20" fill="none" viewBox="0 0 146 20"><path stroke="#EDA03A" d="M0.5 18L10.5362 8.30985C10.639 8.21065 10.6903 8.16105 10.7404 8.11358C13.4923 5.50506 17.13 4.03552 20.9216 4.00064C20.9906 4 21.062 4 21.2048 4L32.66 4C37.6991 4 41.2171 8.99212 39.5223 13.7376V13.7376C38.59 16.3479 36.2575 18.2033 33.5044 18.5245L25.576 19.4495C19.5694 20.1502 15.9476 12.9848 20.0737 8.56386V8.56386C21.3024 7.24742 23.0224 6.5 24.8231 6.5L63.9474 6.5C64.3134 6.5 64.677 6.55901 65.0243 6.67476L69.9763 8.32544C72.0581 9.01936 73.6805 6.46448 72.1671 4.87546V4.87546C70.7914 3.43093 72.0084 1.06117 73.9839 1.33775L93 4L126.707 4C127.826 4 128.386 4 128.942 3.95851C129.308 3.93127 129.672 3.89064 130.035 3.83672C130.587 3.75457 131.133 3.63131 132.224 3.3848L145 0.5"/></svg>