<svg xmlns="http://www.w3.org/2000/svg" width="48" height="47" fill="none" viewBox="0 0 48 47"><path fill="#084850" d="M16.1897 24.5992L11.9801 24.663L10.691 24.8825L11.5078 25.6965L11.0682 25.9045L17.0089 31.8236L16.8368 31.9957L21.4883 36.63L21.291 36.8473L20.2414 37.2196L29.3832 46.3258C38.306 44.1562 45.2361 36.9341 46.9488 27.8718L32.2169 13.1959L17.5108 25.5157L16.1897 24.5992Z" opacity=".2"/><path fill="#F4F6F9" d="M38.6013 24.8831L38.6265 24.6286C37.0729 24.4801 35.5271 24.4672 34.0253 24.5791C34.2672 23.821 34.3931 22.9649 34.3838 21.9916C34.3644 19.9217 33.6638 18.3116 32.5631 16.9741C32.7755 15.7139 32.6171 14.4553 32.2168 13.1959C30.643 13.3221 29.227 13.8285 27.9663 14.7114C25.6092 14.2394 23.2535 14.2101 20.8957 14.7106C19.4249 13.7338 17.9807 13.254 16.5596 13.1959C16.1377 14.5823 16.0729 15.9507 16.4278 17.2947C15.1888 18.5906 14.7143 20.1642 14.7381 21.9056C14.7503 22.9039 14.9073 23.7902 15.1945 24.5748C13.7157 24.4679 12.1959 24.4815 10.6671 24.6293L10.6909 24.8825C12.2492 24.7341 13.7971 24.7218 15.2997 24.8381C15.3551 24.9701 15.412 25.1005 15.4739 25.2275C13.8454 25.1852 12.3781 25.3243 11.0063 25.6564L11.0683 25.9045C12.4617 25.5682 13.9549 25.4326 15.6223 25.4878C16.7238 27.4164 18.8461 28.5496 21.9375 28.9089C21.2182 29.4819 20.8331 30.1604 20.7345 30.9271C20.7345 30.9271 20.4084 30.9271 19.0981 30.9271C16.8987 30.9263 16.299 28.1666 14.0218 28.4391C16.2306 29.5185 15.7907 32.9646 19.3248 32.9646C20.5128 32.9653 20.7662 32.9653 20.8093 32.9653V36.1236C20.8259 36.635 20.5999 36.9764 20.2355 37.213C21.5004 37.3393 22.4529 36.7175 22.4529 35.9529C22.4529 35.1899 22.4529 32.1484 22.4529 31.7782C22.4529 31.4046 22.8489 31.3759 22.8489 31.3759V36.2512C22.864 36.7382 22.6249 37.0143 22.3708 37.2775C23.4867 37.3205 24.5357 37.1018 24.5825 36.1665C24.5825 36.1665 24.5832 31.7358 24.5832 31.4999C24.5832 31.2661 24.9734 31.2596 24.9734 31.4999C24.9734 31.7409 24.9734 35.9478 24.9734 35.9478C24.9849 36.736 25.6753 37.3765 27.1405 37.2774C26.7509 36.9655 26.6293 36.6527 26.6293 36.198C26.6293 35.744 26.6293 31.3758 26.6293 31.3758C26.6293 31.3758 27.0332 31.3557 27.0332 31.7781C27.0332 32.197 27.0332 35.1404 27.0332 35.843C27.0332 36.7495 28.1376 37.1239 29.3975 37.0874C28.9857 36.7832 28.7035 36.4197 28.7035 35.9348V31.0437C28.6595 30.3251 28.3636 29.6452 27.7805 29.0155C30.6054 28.5881 32.6421 27.4763 33.6566 25.4876C35.3297 25.4309 36.8264 25.5664 38.2261 25.905L38.2873 25.6561C36.9028 25.3219 35.4241 25.182 33.7789 25.2265C33.8365 25.1002 33.8934 24.9748 33.9409 24.8414C35.4617 24.7211 37.0268 24.7333 38.6013 24.8831ZM15.0104 28.85C14.9405 28.85 14.883 28.8105 14.883 28.7638C14.883 28.7151 14.9405 28.6756 15.0104 28.6756C15.0788 28.6756 15.1364 28.7151 15.1364 28.7638C15.1364 28.8112 15.0788 28.85 15.0104 28.85ZM15.4049 29.1168C15.3293 29.1168 15.2652 29.0738 15.2652 29.0186C15.2652 28.9655 15.3286 28.9225 15.4049 28.9225C15.4819 28.9225 15.5439 28.9655 15.5439 29.0193C15.5446 29.0738 15.4827 29.1168 15.4049 29.1168ZM15.8067 29.4617C15.716 29.4617 15.644 29.4108 15.644 29.3484C15.644 29.2832 15.7145 29.2322 15.8067 29.2322C15.8974 29.2322 15.9708 29.2839 15.9708 29.3477C15.9708 29.4115 15.8974 29.4617 15.8067 29.4617ZM16.1976 29.8756C16.0918 29.8756 16.0054 29.8161 16.0054 29.7422C16.0054 29.6683 16.0918 29.6095 16.1976 29.6095C16.3028 29.6095 16.3898 29.6684 16.3898 29.7429C16.3898 29.8168 16.3027 29.8763 16.1976 29.8756ZM16.6259 30.3453C16.5093 30.3453 16.4135 30.2779 16.4135 30.1961C16.4135 30.1143 16.5093 30.047 16.6259 30.047C16.7455 30.047 16.8405 30.1143 16.8405 30.1969C16.8405 30.2779 16.7455 30.3453 16.6259 30.3453ZM17.1241 30.8216C16.9938 30.8216 16.8887 30.7469 16.8879 30.6566C16.8887 30.5641 16.9937 30.4902 17.1241 30.4902C17.2559 30.4902 17.3603 30.5648 17.3617 30.6566C17.3603 30.7469 17.2566 30.8208 17.1241 30.8216ZM17.7973 31.2734C17.6526 31.2742 17.5345 31.1916 17.5345 31.0898C17.5337 30.988 17.6525 30.9062 17.7973 30.9062C17.9426 30.9062 18.06 30.988 18.06 31.0898C18.06 31.1916 17.9426 31.2734 17.7973 31.2734ZM18.6317 31.5165C18.4876 31.5165 18.3675 31.4333 18.3675 31.3322C18.3675 31.2317 18.4877 31.1478 18.6317 31.1478C18.7763 31.1478 18.8959 31.231 18.8959 31.3322C18.8959 31.4333 18.7763 31.5165 18.6317 31.5165ZM19.5115 31.543C19.366 31.5423 19.248 31.4612 19.248 31.3609C19.248 31.2576 19.366 31.1758 19.5115 31.1758C19.6569 31.1758 19.7728 31.2576 19.7728 31.3609C19.7728 31.4613 19.6569 31.5423 19.5115 31.543ZM20.3797 31.5603C20.2357 31.561 20.1169 31.4785 20.1169 31.376C20.1169 31.2755 20.2342 31.1931 20.3797 31.1924C20.5244 31.1931 20.6425 31.2748 20.6425 31.376C20.6425 31.4785 20.5244 31.5603 20.3797 31.5603Z"/></svg>