<svg xmlns="http://www.w3.org/2000/svg" xmlns:svg="http://www.w3.org/2000/svg" id="svg4" width="150" height="15" version="1.1" viewBox="0 0 150 15" style="fill:none"><metadata id="metadata10"/><path id="path2" d="M 0.73822435,4.229329 109.54107,1.229925 142.40888,2.0596309 c 6.87393,0.1735554 8.72158,7.1711327 2.53783,9.4273541 v 0 c -1.30428,0.475905 -2.80216,0.596281 -4.20926,0.332734 l -2.68871,-0.5032 c -4.22527,-0.791143 -5.14577,-4.9801493 -1.48185,-6.7440183 v 0 c 4.44823,-2.1419137 9.6948,1.7098897 6.922,5.0832779 l -1.69678,2.0659594 c -1.60869,1.957211 -4.99559,2.61228 -7.66828,1.483105 L 118.45797,6.5864099 c -0.99205,-0.4190766 -1.488,-0.6286149 -1.99143,-0.8142579 -2.41262,-0.8898029 -5.04004,-1.4065101 -7.72527,-1.5192977 -0.56017,-0.023525 -1.12969,-0.023525 -2.26858,-0.023525 H 82.840983 L 0.73822435,1.229926" style="stroke:#fdc172;stroke-width:1.15530896"/></svg>