<svg xmlns="http://www.w3.org/2000/svg" width="320" height="98" fill="none"
     viewBox="0 0 320 98">
    <path fill="url(#paint0_linear_12_26)"
          d="M397.457 55.3796C403.076 55.6576 408.866 52.8316 409.742 47.2752C411.238 37.7917 406.226 28.286 394.89 19.3294C380.135 7.6719 355.185 -2.64695 322.534 -10.595C289.884 -18.5431 250.677 -23.8417 208.837 -25.9609C166.996 -28.0801 123.989 -26.9455 84.1163 -22.6707C44.2437 -18.396 8.90366 -11.1308 -18.3688 -1.60197C-45.6412 7.92686 -63.8899 19.3853 -71.2895 31.6272C-78.6891 43.8691 -74.9802 56.4652 -60.5338 68.1557C-46.7346 79.3224 -23.6007 89.2888 6.71682 97.1505C9.52461 97.8786 12.4889 97.7371 15.2295 96.787L164.751 44.9529C166.567 44.3235 168.486 44.0488 170.406 44.1438L397.457 55.3796Z"/>
    <defs>
        <linearGradient id="paint0_linear_12_26" x1="167.5" x2="167.5" y1="-27"
                        y2="115" gradientUnits="userSpaceOnUse">
            <stop stop-color="#73E5FF" class="fill-[#73E5FF] dark-fill-[red]"/>
            <stop offset=".521" stop-color="#C7F4FF"/>
            <stop offset="1" stop-color="#33DAFF"/>
        </linearGradient>
    </defs>
</svg>
