<svg xmlns="http://www.w3.org/2000/svg" xmlns:xlink="http://www.w3.org/1999/xlink" viewBox="0 0 64 64"><defs><style>.cls-1{fill:url(#radial-gradient)}.cls-2{fill:#fff}</style><radialGradient id="radial-gradient" cx="-578.95" cy="-837.6" r="197.06" gradientTransform="translate(499.5 629.5) scale(0.75)" gradientUnits="userSpaceOnUse"><stop offset="0" stop-color="#f9ed32"/><stop offset=".36" stop-color="#ee2a7b"/><stop offset=".44" stop-color="#d22a8a"/><stop offset=".6" stop-color="#8b2ab2"/><stop offset=".83" stop-color="#1b2af0"/><stop offset=".88" stop-color="#002aff"/></radialGradient></defs><title/><g id="_3-instagram" data-name="3-instagram"><rect width="64" height="64" class="cls-1" rx="11.2" ry="11.2" transform="translate(64 64) rotate(180)"/><path d="M44,56H20A12,12,0,0,1,8,44V20A12,12,0,0,1,20,8H44A12,12,0,0,1,56,20V44A12,12,0,0,1,44,56ZM20,12.8A7.21,7.21,0,0,0,12.8,20V44A7.21,7.21,0,0,0,20,51.2H44A7.21,7.21,0,0,0,51.2,44V20A7.21,7.21,0,0,0,44,12.8Z" class="cls-2"/><path d="M32,45.6A13.6,13.6,0,1,1,45.6,32,13.61,13.61,0,0,1,32,45.6Zm0-22.4A8.8,8.8,0,1,0,40.8,32,8.81,8.81,0,0,0,32,23.2Z" class="cls-2"/><circle cx="45.6" cy="19.2" r="2.4" class="cls-2"/></g></svg>