<svg xmlns="http://www.w3.org/2000/svg" xmlns:svg="http://www.w3.org/2000/svg" xmlns:xlink="http://www.w3.org/1999/xlink" id="svg13094" width="128" height="128" version="1.1"><defs id="defs13096"><linearGradient id="linearGradient3878"><stop style="stop-color:#f1e1f2;stop-opacity:1" id="stop3880" offset="0"/><stop style="stop-color:#c7b3c7;stop-opacity:1" id="stop3882" offset="1"/></linearGradient><linearGradient id="linearGradient5602"><stop id="stop5604" offset="0" style="stop-color:#d85588;stop-opacity:1"/><stop id="stop5606" offset="1" style="stop-color:#9c3f57;stop-opacity:1"/></linearGradient><radialGradient id="radialGradient3923" cx="32.658" cy="63.034" r="20" fx="32.658" fy="63.034" gradientTransform="matrix(0,3.0178492,-2.5501655,0,253.7463,-86.056703)" gradientUnits="userSpaceOnUse" xlink:href="#linearGradient3878"/><linearGradient id="linearGradient3878-8-7"><stop style="stop-color:#fff;stop-opacity:.67679381" id="stop3880-6-5" offset="0"/><stop style="stop-color:#fff;stop-opacity:.54621851" id="stop3882-3-1" offset="1"/></linearGradient><linearGradient id="linearGradient5602-3"><stop style="stop-color:#36a0cd;stop-opacity:1" id="stop5604-0" offset="0"/><stop style="stop-color:#3584ae;stop-opacity:1" id="stop5606-5" offset="1"/></linearGradient><linearGradient id="linearGradient5602-38"><stop style="stop-color:#4a8bc9;stop-opacity:1" id="stop5604-7" offset="0"/><stop style="stop-color:#3f5f8d;stop-opacity:1" id="stop5606-0" offset="1"/></linearGradient><linearGradient id="linearGradient4065"><stop id="stop4067" offset="0" style="stop-color:#fff;stop-opacity:.24952015"/><stop style="stop-color:#fff;stop-opacity:.16442738" id="stop4075" offset=".25"/><stop style="stop-color:#fff;stop-opacity:.38003838" id="stop4073" offset=".5"/><stop id="stop4069" offset="1" style="stop-color:#fff;stop-opacity:0"/></linearGradient><linearGradient id="linearGradient4003"><stop id="stop4005" offset="0" style="stop-color:#d994ff;stop-opacity:.34804863"/><stop style="stop-color:#cf71ff;stop-opacity:.28150991" id="stop4015" offset=".25"/><stop style="stop-color:#d273ff;stop-opacity:.15611005" id="stop4011" offset=".5"/><stop id="stop4013" offset=".75" style="stop-color:#d575ff;stop-opacity:.03774792"/><stop id="stop4009" offset="1" style="stop-color:#d977ff;stop-opacity:0"/></linearGradient><linearGradient id="linearGradient3991"><stop style="stop-color:#7831d9;stop-opacity:.18681319" id="stop3993" offset="0"/><stop id="stop3995" offset=".559" style="stop-color:#610cff;stop-opacity:.07304461"/><stop style="stop-color:#e320ff;stop-opacity:0" id="stop3997" offset="1"/></linearGradient><linearGradient id="linearGradient3971"><stop style="stop-color:#8ad7ff;stop-opacity:.57453614" id="stop3973" offset="0"/><stop id="stop4019" offset=".25" style="stop-color:#72c7ff;stop-opacity:.41010877"/><stop id="stop4017" offset=".5" style="stop-color:#5bb8ff;stop-opacity:.23416507"/><stop style="stop-color:#2c9aff;stop-opacity:0" id="stop3977" offset="1"/></linearGradient><linearGradient id="linearGradient3957"><stop id="stop3959" offset="0" style="stop-color:#204aff;stop-opacity:.17840983"/><stop style="stop-color:#23f;stop-opacity:.0885585" id="stop3965" offset=".559"/><stop id="stop3961" offset="1" style="stop-color:#23f;stop-opacity:0"/></linearGradient><linearGradient id="linearGradient3916"><stop style="stop-color:#292e35;stop-opacity:0" id="stop3918" offset="0"/><stop style="stop-color:#292e35;stop-opacity:0" id="stop3920" offset=".725"/><stop style="stop-color:#292e35;stop-opacity:1" id="stop3923" offset="1"/></linearGradient><linearGradient id="linearGradient3896"><stop id="stop3898" offset="0" style="stop-color:#96a1ad;stop-opacity:1"/><stop id="stop3900" offset=".58" style="stop-color:#576370;stop-opacity:1"/><stop id="stop3902" offset="1" style="stop-color:#292e35;stop-opacity:1"/></linearGradient><linearGradient id="linearGradient4059"><stop style="stop-color:#373e49;stop-opacity:1" id="stop4061" offset="0"/><stop style="stop-color:#576370;stop-opacity:1" id="stop4063" offset="1"/></linearGradient><linearGradient id="linearGradient5602-5"><stop style="stop-color:#5d7290;stop-opacity:1" id="stop5604-3" offset="0"/><stop style="stop-color:#424a55;stop-opacity:1" id="stop5606-7" offset="1"/></linearGradient><radialGradient id="radialGradient3177" cx="365.479" cy="403.615" r="152.099" fx="365.479" fy="403.615" gradientTransform="matrix(0.10519497,0,0,0.10519497,-69.23751,-7.4582185)" gradientUnits="userSpaceOnUse" xlink:href="#linearGradient3916"/><linearGradient id="linearGradient3894" x1="24.556" x2="38.875" y1="29.125" y2="43.444" gradientUnits="userSpaceOnUse" xlink:href="#linearGradient4059"/><radialGradient id="radialGradient3906" cx="365.479" cy="314.609" r="152.099" fx="365.479" fy="314.609" gradientTransform="matrix(0.11176962,0,0,0.11176962,-71.640409,-9.1637616)" gradientUnits="userSpaceOnUse" xlink:href="#linearGradient3896"/><radialGradient id="radialGradient3987" cx="27.632" cy="20.911" r="24" fx="27.632" fy="20.911" gradientTransform="matrix(1.0240731,0,0,0.80310266,-0.65186757,3.3726437)" gradientUnits="userSpaceOnUse" xlink:href="#linearGradient3957"/><radialGradient id="radialGradient3989" cx="58.122" cy="66.194" r="24" fx="58.122" fy="66.194" gradientTransform="matrix(0.36505718,-0.36505718,0.69755254,0.69755254,-18.065393,24.176548)" gradientUnits="userSpaceOnUse" xlink:href="#linearGradient4003"/><radialGradient id="radialGradient4001" cx="44.85" cy="53.138" r="24" fx="44.85" fy="53.138" gradientTransform="matrix(0.88899377,-0.72870643,0.58675194,0.71581469,-25.497997,40.267451)" gradientUnits="userSpaceOnUse" xlink:href="#linearGradient3991"/><linearGradient id="linearGradient4071" x1="28.125" x2="31.938" y1="17.375" y2="38.563" gradientUnits="userSpaceOnUse" xlink:href="#linearGradient4065"/><linearGradient id="linearGradient4093" x1="38.875" x2="39.125" y1="23" y2="29.5" gradientUnits="userSpaceOnUse" xlink:href="#linearGradient3878-8-7"/><radialGradient id="radialGradient4098" cx="36.395" cy="41.624" r="24" fx="36.395" fy="41.624" gradientTransform="matrix(0.40238165,0,0,0.37843906,16.142992,11.596171)" gradientUnits="userSpaceOnUse" xlink:href="#linearGradient3971"/><linearGradient id="linearGradient4104-0"><stop id="stop4106-0" offset="0" style="stop-color:#292e35;stop-opacity:0"/><stop id="stop4108-7" offset=".918" style="stop-color:#292e35;stop-opacity:0"/><stop id="stop4110-1" offset="1" style="stop-color:#292e35;stop-opacity:1"/></linearGradient><radialGradient id="radialGradient4128" cx="33" cy="35" r="24" fx="33" fy="35" gradientUnits="userSpaceOnUse" xlink:href="#linearGradient4104-0"/><radialGradient id="radialGradient4151" cx="33" cy="35" r="24" fx="33" fy="35" gradientUnits="userSpaceOnUse" xlink:href="#linearGradient4104-0"/><radialGradient id="radialGradient4155" cx="33" cy="35" r="24" fx="33" fy="35" gradientUnits="userSpaceOnUse" xlink:href="#linearGradient4104-0"/><linearGradient id="linearGradient5602-0"><stop style="stop-color:#5485be;stop-opacity:1" id="stop5604-5" offset="0"/><stop style="stop-color:#446a9b;stop-opacity:1" id="stop5606-8" offset="1"/></linearGradient></defs><metadata id="metadata13099"/><rect style="opacity:1;fill:#406291;fill-opacity:1;stroke:none;stroke-width:.6;stroke-miterlimit:4;stroke-dasharray:none;stroke-dashoffset:0;stroke-opacity:1" id="rect3358" width="110" height="110" x="9.293" y="9.293" ry="13.015"/><path id="path3080" d="m 62.170141,22.868461 c -2.77174,0.406382 -5.67893,1.10192 -8.33604,2.018882 0.12504,3.188536 1.31423,6.429168 1.85607,9.638541 0.42722,1.990228 0.87529,4.001298 1.30251,5.991524 0.0205,0.0126 0.0445,0.0199 0.0651,0.03256 0.5754,-0.186526 1.16498,-0.348458 1.75838,-0.48844 12.08725,-3.396933 25.82868,3.859325 29.8925,15.727753 0.57725,1.577029 1.018,3.192244 1.26994,4.851831 5.11453,-1.118222 10.255349,-2.235866 15.369559,-3.353952 0.80235,-1.677626 -0.64734,-3.800708 -0.81406,-5.665896 -0.11462,-2.063169 -1.05243,-3.803316 -3.38651,-3.126013 l -10.192109,0 c -1.30251,-3.021811 -5.19569,-5.176157 -2.76782,-8.531408 0.91696,-2.907194 2.27417,-5.723211 2.93063,-8.661663 -2.26115,-1.677625 -4.79452,-3.231514 -7.32659,-4.461082 -3.06349,2.573752 -5.74405,5.684135 -8.66166,8.466287 -3.20937,-1.563009 -8.11721,0.226635 -8.85704,-4.233143 -1.4067,-2.70921 -2.47736,-5.652872 -4.10289,-8.205784 z m -24.12892,11.038732 c -1.85476,0.187561 -2.91761,2.509927 -4.42851,3.614455 -1.70889,1.177462 -2.73657,2.879837 -0.94432,4.526203 1.76099,2.907192 3.54672,5.819593 5.30771,8.726785 -1.89645,2.677954 -1.7141,7.106471 -5.86127,6.773029 -2.94888,0.718983 -6.06186,1.049818 -8.92217,2.018884 -0.25633,2.792571 -0.26467,5.7714 0,8.563971 3.79811,1.281668 7.85802,1.9759 11.75512,3.028326 0.32301,3.553233 4.43763,6.819918 1.00944,9.768791 -1.58385,2.60501 -3.58319,5.030274 -4.91696,7.749905 1.79225,2.156949 3.88928,4.25398 6.05665,6.05665 2.19863,-1.52133 3.82676,-4.063816 5.79615,-5.991523 1.71931,-1.906869 3.41517,-3.824158 5.14489,-5.731025 0.003,-0.06501 -0.003,-0.130339 0,-0.195379 -4.12564,-3.799842 -7.04021,-8.897505 -7.78247,-14.555492 -1.58629,-8.951247 2.4749,-18.217621 9.47573,-23.73816 -3.89454,-3.542957 -7.80599,-7.072309 -11.68999,-10.61542 z m 51.6769,35.916584 c -2.31804,10.457275 -11.78323,19.088139 -22.66359,19.667833 -3.74245,0.378242 -7.47754,-0.244742 -10.90848,-1.59557 -0.0342,0.01885 -0.0635,0.04637 -0.0977,0.06512 -1.34419,5.06414 -2.69358,10.09963 -4.03777,15.17419 1.08368,1.5109 3.66395,1.25822 5.37283,2.01888 1.87561,0.8857 3.86454,0.94301 4.39596,-1.43276 l 4.8844,-8.95472 c 3.27189,0.30218 7.01008,-2.06838 8.79191,1.69326 2.09442,2.18821 3.94789,4.72809 6.21946,6.7079 2.54249,-1.16704 5.13187,-2.6506 7.42428,-4.26571 -0.7815,-3.92835 -2.22468,-7.760323 -3.25626,-11.657418 2.90719,-2.052749 3.71604,-7.253653 7.97784,-5.763586 3.05307,0.104192 6.16085,0.578313 9.182659,0.39075 0.96907,-2.636271 1.73494,-5.499177 2.21426,-8.270908 -2.41745,-1.167047 -5.428839,-1.312923 -8.075529,-2.084009 -2.47446,-0.547707 -4.95689,-1.133693 -7.42428,-1.693256 z" style="color:#000;display:inline;overflow:visible;visibility:visible;fill:#f9f9f9;fill-opacity:1;fill-rule:nonzero;stroke:none;stroke-width:1;marker:none;enable-background:accumulate"/></svg>