<svg xmlns="http://www.w3.org/2000/svg" width="36" height="36" fill="none" viewBox="0 0 36 36"><path fill="#F2F6FF" d="M4.81141 8.96967H4.76102C2.31508 8.96967 0.729385 7.19007 0.729385 4.9327C0.729385 2.63236 2.36196 0.889214 4.85829 0.889214C7.35111 0.889214 8.88524 2.62716 8.93329 4.92619C8.93329 7.18226 7.35111 8.96967 4.81141 8.96967Z"/><path fill="#3FDCFF" d="M8.93329 4.92749C8.90399 3.51371 8.30862 2.31602 7.27728 1.60002C7.06163 1.57138 6.84833 1.54144 6.61627 1.54144C4.11994 1.54144 2.48737 3.28459 2.48737 5.58492C2.48737 6.98048 3.0968 8.18988 4.13752 8.9124C4.34145 8.93973 4.5442 8.96968 4.76102 8.96968H4.81142C7.35111 8.96968 8.93329 7.18226 8.93329 4.92749Z"/><path fill="#455A64" d="M4.81142 9.62058H4.76103C2.08538 9.62058 0.143402 7.64961 0.143402 4.93399C0.143402 2.21447 2.1264 0.239594 4.8583 0.239594C7.5445 0.239594 9.46187 2.16109 9.5193 4.91186C9.5193 7.64701 7.53981 9.62058 4.81142 9.62058ZM4.8583 1.54142C2.77217 1.54142 1.31539 2.93698 1.31539 4.93399C1.31539 6.92709 2.73232 8.32005 4.76103 8.32005H4.81142C6.89405 8.31875 8.34731 6.92449 8.34731 4.92748C8.30395 2.8758 6.93506 1.54142 4.8583 1.54142Z"/><path fill="#F2F6FF" d="M7.76132 11.7361H1.90138V35.169H7.76132V11.7361Z"/><path fill="#3FDCFF" d="M7.76132 35.169H3.65936V13.6888C3.65936 12.9702 4.18324 12.387 4.83135 12.387H7.76132V35.169Z"/><path fill="#455A64" d="M7.76131 35.8199H1.90138C1.57791 35.8199 1.31538 35.5283 1.31538 35.169V11.7361C1.31538 11.3768 1.57791 11.0851 1.90138 11.0851H7.76131C8.08478 11.0851 8.3473 11.3768 8.3473 11.7361V35.169C8.3473 35.5283 8.08478 35.8199 7.76131 35.8199ZM2.48737 34.5181H7.17532V12.387H2.48737V34.5181Z"/><path fill="#F2F6FF" d="M26.5131 11.7361C23.6335 11.7361 21.0845 13.2826 19.4812 15.6598V11.7361H12.4493V35.169H17.7232H19.4812V22.8016C19.4812 20.2852 21.3177 18.2452 23.5831 18.2452C25.8486 18.2452 27.6851 20.2852 27.6851 22.8016V35.169H34.717V20.8489C34.717 15.816 31.044 11.7361 26.5131 11.7361Z"/><path fill="#3FDCFF" d="M26.7756 13.6953C24.5676 13.7851 22.5729 14.7823 21.0727 16.3589C20.6907 16.7598 20.0672 16.489 20.0672 15.9058V14.8852C19.8609 15.1325 19.6628 15.389 19.4812 15.6598V12.387H15.3792C14.7311 12.387 14.2072 12.9702 14.2072 13.6888V35.169H17.7232H19.4812V22.8016C19.4812 20.2852 21.3177 18.2452 23.5831 18.2452C24.8454 18.2452 25.9611 18.8935 26.7147 19.8907C27.6605 20.7252 28.2711 22.0062 28.2711 23.4525V35.169H34.717V20.8489C34.717 20.3646 34.6736 19.8933 34.6068 19.4299C33.2966 16.01 30.2728 13.5534 26.7756 13.6953Z"/><path fill="#455A64" d="M34.717 35.8199H27.6851C27.3616 35.8199 27.0991 35.5283 27.0991 35.169V22.8016C27.0991 20.6484 25.5216 18.8961 23.5831 18.8961C21.6447 18.8961 20.0672 20.6484 20.0672 22.8016V35.169C20.0672 35.5283 19.8046 35.8199 19.4812 35.8199H12.4493C12.1258 35.8199 11.8633 35.5283 11.8633 35.169V11.7361C11.8633 11.3768 12.1258 11.0851 12.4493 11.0851H19.4812C19.8046 11.0851 20.0672 11.3768 20.0672 11.7361V15.6598C20.0672 16.0191 19.8046 16.3107 19.4812 16.3107C19.1577 16.3107 18.8952 16.0191 18.8952 15.6598V12.387H13.0353V34.5181H18.8952V22.8016C18.8952 19.9298 20.9977 17.5943 23.5831 17.5943C26.1685 17.5943 28.2711 19.9298 28.2711 22.8016V34.5181H34.131V20.8489C34.131 16.1831 30.7135 12.387 26.5131 12.387C24.8911 12.387 23.323 12.9155 21.9763 13.914C21.708 14.1119 21.3435 14.0338 21.1642 13.7344C20.9848 13.4349 21.0563 13.0314 21.3271 12.8322C22.8659 11.6892 24.659 11.0851 26.5131 11.0851C31.3604 11.0851 35.303 15.4645 35.303 20.8489V35.169C35.303 35.5283 35.0405 35.8199 34.717 35.8199Z"/></svg>