<svg xmlns="http://www.w3.org/2000/svg" width="34" height="36" fill="none" viewBox="0 0 34 36"><path fill="#F2F6FF" d="M30.6237 0.874954H3.74184C2.40578 0.874954 1.32404 2.04783 1.32404 3.49646V32.6431C1.32404 34.046 2.37414 35.1845 3.66801 35.1845H30.6237C31.9176 35.1845 32.9677 34.046 32.9677 32.6431V3.41641C32.9677 2.01352 31.9176 0.874954 30.6237 0.874954Z"/><path fill="#3FDCFF" d="M4.25399 2.78104C3.60705 2.78104 3.082 3.35033 3.082 4.05177V34.5492C3.082 34.7449 3.10661 34.9329 3.14529 35.1159C3.31405 35.1579 3.48751 35.1845 3.66799 35.1845H30.6237C31.9176 35.1845 32.9677 34.046 32.9677 32.6431V3.41641C32.9677 3.22072 32.943 3.03265 32.9044 2.84966C32.7356 2.80773 32.5622 2.78104 32.3817 2.78104H4.25399Z"/><path fill="#F2F6FF" d="M18.9038 35.1846V22.4773H14.2159V17.3944H18.9038V11.0408C18.9038 8.23374 21.0029 5.95787 23.5918 5.95787H28.2797V11.0408H24.7638C24.1157 11.0408 23.5918 11.6088 23.5918 12.3115V17.3944H28.2797L27.6937 22.4773H23.5918V35.1846H18.9038Z"/><path fill="#455A64" d="M16.5598 35.8199H3.66797C2.05298 35.8199 0.738007 34.3954 0.738007 32.6431V9.77004C0.738007 9.41932 1.00053 9.13468 1.324 9.13468C1.64747 9.13468 1.90999 9.41932 1.90999 9.77004V32.6431C1.90999 33.694 2.69874 34.5492 3.66797 34.5492H16.5598C16.8833 34.5492 17.1458 34.8338 17.1458 35.1846C17.1458 35.5353 16.8833 35.8199 16.5598 35.8199Z"/><path fill="#455A64" d="M30.6237 35.8199H23.5917C23.2683 35.8199 23.0058 35.5353 23.0058 35.1845V22.4773C23.0058 22.1266 23.2683 21.8419 23.5917 21.8419H27.1769L27.6164 18.0298H23.5917C23.2683 18.0298 23.0058 17.7451 23.0058 17.3944V12.3115C23.0058 11.2606 23.7945 10.4054 24.7637 10.4054H27.6937V6.59323H23.5917C21.3298 6.59323 19.4898 8.58827 19.4898 11.0408V17.3944C19.4898 17.7451 19.2273 18.0298 18.9038 18.0298H14.8018V21.8419H18.9038C19.2273 21.8419 19.4898 22.1266 19.4898 22.4773V35.1845C19.4898 35.5353 19.2273 35.8199 18.9038 35.8199C18.5803 35.8199 18.3178 35.5353 18.3178 35.1845V23.1127H14.2159C13.8924 23.1127 13.6299 22.828 13.6299 22.4773V17.3944C13.6299 17.0437 13.8924 16.759 14.2159 16.759H18.3178V11.0408C18.3178 7.8881 20.684 5.3225 23.5917 5.3225H28.2797C28.6032 5.3225 28.8657 5.60715 28.8657 5.95787V11.0408C28.8657 11.3915 28.6032 11.6761 28.2797 11.6761H24.7637C24.4403 11.6761 24.1777 11.962 24.1777 12.3115V16.759H28.2797C28.4485 16.759 28.6079 16.8378 28.7192 16.9738C28.8305 17.1098 28.8821 17.2927 28.861 17.4744L28.275 22.5574C28.2387 22.875 27.989 23.1127 27.6937 23.1127H24.1777V34.5492H30.6237C31.5929 34.5492 32.3816 33.694 32.3816 32.6431V3.41641C32.3816 2.36552 31.5929 1.51033 30.6237 1.51033H3.66797C2.69874 1.51033 1.90999 2.36552 1.90999 3.41641V4.68714C1.90999 5.03786 1.64747 5.3225 1.324 5.3225C1.00053 5.3225 0.738007 5.03786 0.738007 4.68714V3.41641C0.738007 1.66408 2.05298 0.239601 3.66797 0.239601H30.6237C32.2387 0.239601 33.5536 1.66408 33.5536 3.41641V32.6431C33.5536 34.3954 32.2387 35.8199 30.6237 35.8199Z"/><path fill="#455A64" d="M1.90999 7.22859C1.90999 7.57804 1.6463 7.86396 1.324 7.86396C1.0017 7.86396 0.738007 7.57804 0.738007 7.22859C0.738007 6.87914 1.0017 6.59323 1.324 6.59323C1.6463 6.59323 1.90999 6.87914 1.90999 7.22859Z"/></svg>