<svg xmlns="http://www.w3.org/2000/svg" width="40" height="36" fill="none" viewBox="0 0 40 36"><path fill="#F2F6FF" d="M39.0783 4.99063C37.6787 5.67723 36.17 6.14158 34.589 6.34826C36.2041 5.28226 37.4434 3.59193 38.027 1.57884C36.5156 2.56556 34.8439 3.28473 33.0579 3.6698C31.6359 1.99363 29.6015 0.947441 27.3515 0.947441C23.0369 0.947441 19.5359 4.80942 19.5359 9.57177C19.5359 10.2485 19.6029 10.9039 19.7369 11.5367C13.2394 11.1757 7.47919 7.74554 3.62064 2.52168C2.94776 3.79862 2.56269 5.28226 2.56269 6.86216C2.56269 9.85349 3.94394 12.4937 6.04143 14.0397C4.7627 13.9972 3.55361 13.605 2.49829 12.9637V13.0699C2.49829 17.249 5.19376 20.7358 8.77239 21.5258C8.11659 21.7282 7.42531 21.8302 6.71169 21.8302C6.20834 21.8302 5.71682 21.7778 5.23845 21.6773C6.23463 25.1032 9.12066 27.5976 12.5429 27.6642C9.86713 29.9788 6.49353 31.3591 2.83211 31.3591C2.20128 31.3591 1.57702 31.3195 0.965912 31.2402C4.42626 33.6837 8.53846 35.1121 12.9529 35.1121C27.3371 35.1121 35.1987 21.9717 35.1987 10.5741C35.1987 10.1989 35.1922 9.82376 35.179 9.45568C36.7075 8.23961 38.0348 6.72059 39.0783 4.99063Z"/><path fill="#3FDCFF" d="M37.7155 2.39003C36.2225 3.3895 34.8255 5.41251 33.0592 5.79333C31.6372 4.11716 29.6028 3.07097 27.3528 3.07097C23.6704 3.07097 20.5478 5.91932 20.4374 10.5613C20.4177 11.3782 19.8302 12.0521 19.0733 12.0988C15.6721 12.3055 6.95088 11.3286 2.76508 4.98214C2.64155 5.58805 2.56138 6.21379 2.56138 6.86217C2.56138 9.8535 3.94263 12.4937 6.04012 14.0397C4.76139 13.9972 3.5523 13.6051 2.49698 12.9638V13.0699C2.49698 17.249 5.19245 20.7358 8.77107 21.5258C8.11528 21.7282 7.424 21.8302 6.71038 21.8302C6.20703 21.8302 5.71551 21.7778 5.23713 21.6773C6.23331 25.1032 9.11934 27.5976 12.5416 27.6642C9.86582 29.9788 6.49221 31.3591 2.83079 31.3591C2.19997 31.3591 1.57571 31.3195 0.9646 31.2402C4.42494 33.6837 8.53714 35.1121 12.9516 35.1121C27.3358 35.1121 35.1974 21.9717 35.1974 10.5741C35.1974 10.1989 35.1909 9.82377 35.1777 9.45569C36.7062 8.23962 38.0322 6.72201 39.077 4.99205C37.6774 5.67866 36.1686 6.143 34.5876 6.34969C35.9781 5.43233 37.0597 4.03788 37.7155 2.39003Z"/><path fill="#455A64" d="M12.9529 35.8199C8.57132 35.8199 4.30142 34.441 0.605826 31.8319C0.350867 31.6522 0.244415 31.3053 0.348238 30.9981C0.453376 30.6895 0.735934 30.4998 1.04478 30.538C1.62435 30.6145 2.22626 30.6527 2.83212 30.6527C5.2056 30.6527 7.47657 30.0623 9.58196 28.8972C9.99725 28.6679 10.4047 28.4159 10.8002 28.1441C7.91947 27.4235 5.5381 25.0777 4.61157 21.891C4.50249 21.5173 4.69568 21.1209 5.04264 21.0048C5.38828 20.8859 5.75757 21.0954 5.86534 21.4692C6.80238 24.6941 9.49128 26.8997 12.5547 26.9592C12.832 26.9648 13.0752 27.156 13.1645 27.4377C13.2539 27.7194 13.1698 28.0308 12.9542 28.2177C12.0921 28.9638 11.159 29.6164 10.1826 30.1572C8.1166 31.2997 5.90608 31.9353 3.59831 32.05C6.50931 33.5987 9.69761 34.4071 12.9529 34.4071C26.4671 34.4071 34.5416 22.2903 34.5416 10.5769C34.5416 10.2117 34.5351 9.84501 34.5233 9.48542C34.5154 9.25184 34.6139 9.02957 34.79 8.88942C36.2633 7.71724 37.5223 6.27608 38.529 4.60982C38.7261 4.2828 39.1349 4.18653 39.4371 4.40313C39.7407 4.61548 39.8274 5.05434 39.629 5.38136C38.6 7.08584 37.3291 8.57231 35.8467 9.80395C35.8519 10.0602 35.8559 10.3193 35.8559 10.5769C35.8559 22.9825 27.2898 35.8199 12.9529 35.8199Z"/><path fill="#455A64" d="M8.77239 22.235C8.72902 22.235 8.68434 22.2308 8.63966 22.2209C4.69962 21.3517 1.83987 17.5024 1.83987 13.0713C1.83987 12.6806 2.13426 12.3097 2.49698 12.3097C2.85971 12.3097 3.1541 12.573 3.1541 12.9638V13.0699C3.1541 16.8328 5.57226 20.0974 8.90381 20.8321C9.25997 20.91 9.48864 21.2851 9.41505 21.6674C9.35196 22.0043 9.07861 22.235 8.77239 22.235Z"/><path fill="#455A64" d="M6.04012 14.7475C5.91264 14.7475 5.78253 14.7079 5.66951 14.6243C3.3118 12.8859 1.90427 9.98374 1.90427 6.86216C1.90427 5.21572 2.29985 3.59335 3.04764 2.17201C3.15541 1.96674 3.34991 1.83366 3.56807 1.81526C3.7928 1.79685 3.99782 1.89595 4.13319 2.07999C7.99174 7.30244 13.6915 10.4906 19.7711 10.8275C20.1325 10.8473 20.4124 11.1814 20.394 11.5707C20.3757 11.96 20.051 12.2545 19.7041 12.2417C13.589 11.902 7.83666 8.84836 3.76783 3.81703C3.40774 4.77828 3.2198 5.81314 3.2198 6.86074C3.2198 9.51515 4.41312 11.9798 6.41205 13.455C6.71169 13.6758 6.78791 14.1161 6.58289 14.4389C6.45542 14.6399 6.2504 14.7475 6.04012 14.7475Z"/><path fill="#455A64" d="M19.5569 9.64963C19.5412 9.64963 19.5254 9.64963 19.5096 9.64822C19.1482 9.62132 18.8748 9.28297 18.9011 8.89225C19.2192 4.04071 22.9305 0.239601 27.3516 0.239601C29.5687 0.239601 31.7069 1.20226 33.28 2.89542C34.8269 2.51885 36.308 1.8733 37.6866 0.974339C37.9205 0.822861 38.2176 0.841265 38.4318 1.02247C38.6473 1.20368 38.7354 1.50947 38.6539 1.78977C38.0283 3.94727 36.7062 5.78058 34.932 6.95135C34.6232 7.1552 34.2171 7.05044 34.0278 6.71776C33.8373 6.38507 33.9358 5.94904 34.2447 5.74377C35.2251 5.09539 36.0425 4.21059 36.6405 3.1644C35.5326 3.70377 34.3774 4.10583 33.1867 4.36206C32.9633 4.41161 32.7281 4.3295 32.573 4.14547C31.2298 2.56132 29.3255 1.65387 27.3516 1.65387C23.6179 1.65387 20.4808 4.87596 20.2114 8.98993C20.1878 9.36508 19.8999 9.64963 19.5569 9.64963Z"/></svg>