<svg xmlns="http://www.w3.org/2000/svg" width="36" height="36" fill="none" viewBox="0 0 36 36"><path fill="#F2F6FF" d="M18.3059 34.8132C27.6913 34.8132 35.2997 27.2048 35.2997 17.8194C35.2997 8.43398 27.6913 0.825592 18.3059 0.825592C8.92046 0.825592 1.31207 8.43398 1.31207 17.8194C1.31207 27.2048 8.92046 34.8132 18.3059 34.8132Z"/><path fill="#3FDCFF" d="M35.2997 17.8194C35.2997 16.2501 35.07 14.7359 34.6715 13.2932C32.1705 7.02189 26.055 2.58357 18.8918 2.58357C9.50658 2.58357 1.89804 10.1921 1.89804 19.5774C1.89804 21.1467 2.12775 22.6609 2.52623 24.1036C5.02725 30.3749 11.1427 34.8132 18.3059 34.8132C27.6911 34.8132 35.2997 27.2047 35.2997 17.8194Z"/><path fill="#F2F6FF" d="M24.1072 33.7748C23.3407 34.0526 22.5262 33.4818 22.5285 32.6661C22.5344 31.2281 22.5403 29.5287 22.5403 28.3415C22.5403 26.7499 21.9965 25.7092 21.387 25.1818C25.1725 24.7599 29.1456 23.3172 29.1456 16.7634C29.1456 14.9 28.4881 13.3776 27.3981 12.1845C27.5739 11.752 28.1564 10.0187 27.2294 7.66883C27.2294 7.66883 25.8054 7.21058 22.5614 9.41743C21.2042 9.03888 19.7498 8.85019 18.307 8.84316C16.862 8.85019 15.4087 9.03888 14.0527 9.41743C10.8063 7.21175 9.37885 7.67 9.37885 7.67C8.45533 10.0187 9.0378 11.7532 9.2136 12.1857C8.126 13.3787 7.46383 14.9012 7.46383 16.7646C7.46383 23.302 11.431 24.7658 15.2048 25.1959C14.7184 25.6225 14.2789 26.3749 14.1254 27.4766C13.1562 27.9137 10.6962 28.6673 9.17844 26.0596C9.17844 26.0596 8.2807 24.4224 6.57663 24.3017C6.57663 24.3017 4.91593 24.2806 6.45943 25.3389C6.45943 25.3389 7.57399 25.8639 8.34516 27.834C8.34516 27.834 9.34252 31.1531 14.0703 30.1217C14.0738 30.7335 14.0785 31.7133 14.0832 32.6638C14.0867 33.4771 13.2769 34.0573 12.5127 33.7795C10.8309 33.1689 9.2722 32.3016 7.88457 31.2246C10.7641 33.4654 14.375 34.8132 18.3059 34.8132C22.1488 34.8132 25.6824 33.5217 28.5303 31.3699C27.1942 32.3767 25.7081 33.1935 24.1072 33.7748Z"/><path fill="#455A64" d="M12.9066 34.4335C12.7061 34.4335 12.5057 34.3995 12.3135 34.3292C5.05659 31.6969 0.407314 24.747 0.743675 17.0342C0.757738 16.7119 1.01558 16.4658 1.35428 16.474C1.67775 16.488 1.92855 16.7623 1.91449 17.0846C1.6004 24.2829 5.94026 30.7699 12.7132 33.2252C12.8901 33.2908 13.0859 33.2639 13.2441 33.1513C13.407 33.0365 13.4996 32.8583 13.4984 32.6626L13.489 30.8191C8.88664 31.4766 7.79669 28.0356 7.78497 27.9993C7.13803 26.3526 6.21216 25.8663 6.20279 25.8616C5.80197 25.5932 5.03549 25.0693 5.25348 24.3825C5.4492 23.7637 6.25201 23.7227 6.58486 23.7122C8.61942 23.8551 9.65077 25.6963 9.69296 25.7749C10.8134 27.7004 12.5221 27.4695 13.6015 27.057C13.707 26.5273 13.8816 26.0456 14.116 25.6319C10.7501 25.0623 6.87785 23.3195 6.87785 16.7623C6.87785 14.968 7.43923 13.387 8.54676 12.0556C8.30299 11.2657 7.99827 9.58034 8.83273 7.45553C8.89719 7.29145 9.03196 7.16605 9.19956 7.11214C9.36832 7.05705 10.9259 6.65037 14.1571 8.78339C15.4685 8.44234 16.8632 8.26537 18.3047 8.25834C19.751 8.26537 21.1444 8.44234 22.4571 8.78339C25.6871 6.65037 27.2388 7.05705 27.4099 7.11214C27.5775 7.16605 27.7111 7.29145 27.7755 7.45436C28.6135 9.57917 28.31 11.2645 28.065 12.0567C29.1714 13.3846 29.7316 14.9656 29.7316 16.7634C29.7316 23.3207 25.8547 25.0588 22.4829 25.6225C22.8977 26.3526 23.1263 27.2938 23.1263 28.3415C23.1263 29.5287 23.1204 31.2305 23.1146 32.6685C23.1146 32.863 23.2048 33.0377 23.3654 33.1513C23.5259 33.2639 23.724 33.2908 23.908 33.2252C30.3715 30.8765 34.7137 24.6849 34.7137 17.8194C34.7137 13.292 32.9088 9.07639 29.6331 5.94835C26.3586 2.82267 22.0598 1.21704 17.5195 1.43035C17.1972 1.45496 16.9229 1.19478 16.9065 0.87248C16.8913 0.549012 17.1409 0.274767 17.4644 0.259531C22.3305 0.0368534 26.9341 1.75264 30.4418 5.10101C33.9531 8.45172 35.8857 12.9686 35.8857 17.8194C35.8857 25.176 31.2329 31.8094 24.3088 34.3257C23.7662 34.5214 23.1626 34.4417 22.6915 34.1089C22.2215 33.7772 21.9414 33.2369 21.9437 32.6638C21.9496 31.2269 21.9555 29.5276 21.9555 28.3415C21.9555 26.6316 21.2909 25.8721 21.005 25.626C20.8292 25.4737 20.7589 25.2311 20.828 25.0095C20.8972 24.7869 21.0917 24.6263 21.3226 24.6005C24.9018 24.202 28.5608 22.9586 28.5608 16.7646C28.5608 15.1473 28.024 13.7386 26.9669 12.5818C26.8145 12.4142 26.7712 12.1751 26.8567 11.9653C27.0196 11.5669 27.4708 10.164 26.8075 8.21732C26.3117 8.23138 25.046 8.43883 22.893 9.90498C22.7501 10.0023 22.5719 10.0327 22.4055 9.98468C21.1351 9.63074 19.7181 9.4397 18.3047 9.4315C16.8772 9.43853 15.4978 9.62488 14.2098 9.98468C14.0446 10.0339 13.8664 10.0023 13.7223 9.90498C11.5775 8.44586 10.3118 8.23256 9.80079 8.21966C9.14096 10.1663 9.59335 11.5657 9.75508 11.9653C9.83946 12.1751 9.79727 12.4142 9.64491 12.5806C8.58544 13.7421 8.04867 15.1496 8.04867 16.7646C8.04867 22.9551 11.6994 24.2067 15.2704 24.6134C15.5002 24.6392 15.6935 24.7986 15.7627 25.0201C15.8318 25.2404 15.7639 25.483 15.5904 25.6354C15.3279 25.8663 14.8626 26.423 14.7044 27.5574C14.6774 27.7567 14.5485 27.9278 14.3645 28.0098C13.4855 28.406 10.4782 29.4596 8.67099 26.3538C8.6581 26.3315 8.0557 25.2744 6.97864 24.9638C7.36071 25.2193 8.24087 25.9624 8.89015 27.6184C8.94055 27.7743 9.83712 30.4417 13.9449 29.5475C14.1184 29.5111 14.2977 29.551 14.436 29.6623C14.5743 29.7725 14.6552 29.9401 14.6563 30.1159L14.6692 32.6591C14.6716 33.2346 14.3915 33.7784 13.918 34.1112C13.6179 34.3233 13.264 34.4335 12.9066 34.4335Z"/><path fill="#455A64" d="M17.9976 35.3992C8.31352 35.3992 0.726074 27.677 0.726074 17.8194C0.726074 13.5663 2.17699 9.4854 4.81045 6.32924C5.01672 6.08078 5.38824 6.04679 5.63553 6.25541C5.88399 6.46285 5.91797 6.83203 5.71053 7.08049C3.25171 10.0257 1.89806 13.8393 1.89806 17.8194C1.89806 27.0207 8.96983 34.2272 17.9976 34.2272C27.2153 34.2272 34.7137 26.8671 34.7137 17.8194C34.7137 8.77166 27.2153 1.41159 17.9976 1.41159C15.1368 1.41159 12.358 2.13822 9.96016 3.51179C9.68122 3.67001 9.32142 3.5739 9.16086 3.2938C9.0003 3.01252 9.09758 2.65507 9.37768 2.49333C11.9525 1.01897 14.9341 0.239601 17.9976 0.239601C27.8611 0.239601 35.8857 8.1259 35.8857 17.8194C35.8857 27.5129 27.8611 35.3992 17.9976 35.3992Z"/><path fill="#455A64" d="M8.39437 4.4025C8.39437 4.7248 8.13067 4.98849 7.80837 4.98849C7.48608 4.98849 7.22238 4.7248 7.22238 4.4025C7.22238 4.0802 7.48608 3.81651 7.80837 3.81651C8.13067 3.81651 8.39437 4.07903 8.39437 4.4025Z"/></svg>