<svg xmlns="http://www.w3.org/2000/svg" width="135" height="19" fill="none" viewBox="0 0 135 19"><path stroke="#00A707" stroke-width="1.131" d="M134.175 0.661583L112.366 3.9583C108.016 4.61574 108.086 10.9088 112.449 11.4692L128.23 13.496C130.686 13.8115 130.615 17.3919 128.148 17.6095V17.6095C128.019 17.6209 127.889 17.6202 127.76 17.6073L113.568 16.188C112.534 16.0847 112.017 16.033 111.505 15.9499C111.169 15.8954 110.835 15.8308 110.503 15.7561C109.997 15.6425 109.498 15.4978 108.5 15.2086L75.5345 5.65343C73.2778 4.99934 70.8468 5.39186 68.9107 6.72292L52.8237 17.7828C50.6294 19.2913 47.8535 16.9224 48.9984 14.5182V14.5182C49.7414 12.9578 48.7857 11.1198 47.0815 10.832L7.71955 4.183C1.59132 3.14783 -0.997727 11.6938 4.67465 14.2336V14.2336"/></svg>