<svg xmlns="http://www.w3.org/2000/svg" width="122" height="10" fill="none" viewBox="0 0 122 10"><path stroke="#00A707" d="M122 0.5L78.4084 0.5C75.8719 0.5 74.6037 0.5 73.407 0.799824C72.6241 0.995972 71.8679 1.28618 71.1547 1.6641C70.0647 2.24178 69.122 3.09018 67.2367 4.78699L62.6603 8.9057C62.4018 9.13835 62.2726 9.25468 62.1207 9.31984C62.0216 9.36233 61.9164 9.38854 61.8089 9.39743C61.6442 9.41106 61.4755 9.36888 61.1381 9.28453L29.3148 1.32871C27.9903 0.997576 27.328 0.832008 26.655 0.757836C26.2135 0.709182 25.7693 0.689996 25.3252 0.700405C24.6483 0.716274 23.9742 0.824126 22.6261 1.03983L1 4.5"/></svg>